<!--?xml version="1.0" standalone="no"?-->
              <svg id="sw-js-blob-svg" viewBox="0 0 100 100" xmlns="http://www.w3.org/2000/svg" version="1.1">
                    <defs> 
                        <linearGradient id="sw-gradient" x1="0" x2="1" y1="1" y2="0">
                            <stop id="stop1" stop-color="rgba(174.245, 21.704, 151.208, 1)" offset="0%"></stop>
                            <stop id="stop2" stop-color="rgba(52.2, 174.245, 151.507, 1)" offset="100%"></stop>
                        </linearGradient>
                    </defs>
                <path fill="url(#sw-gradient)" d="M23.3,-28.2C31,-21.4,38.4,-14.7,40.1,-6.8C41.8,1.1,37.7,10.3,32,16.9C26.3,23.5,18.9,27.6,11.4,29.6C3.9,31.6,-3.8,31.5,-12.1,29.9C-20.4,28.4,-29.4,25.2,-34.6,18.7C-39.9,12.2,-41.4,2.3,-38,-4.9C-34.5,-12.1,-26.1,-16.6,-19,-23.4C-11.8,-30.3,-5.9,-39.4,1,-40.6C7.9,-41.8,15.7,-34.9,23.3,-28.2Z" width="100%" height="100%" transform="translate(50 50)" stroke-width="0" style="transition: 0.3s;" stroke="url(#sw-gradient)"></path>
              </svg>