<!--?xml version="1.0" standalone="no"?-->
              <svg id="sw-js-blob-svg" viewBox="0 0 100 100" xmlns="http://www.w3.org/2000/svg" version="1.1">
                    <defs> 
                        <linearGradient id="sw-gradient" x1="0" x2="1" y1="1" y2="0">
                            <stop id="stop1" stop-color="rgba(174.245, 21.704, 151.208, 1)" offset="0%"></stop>
                            <stop id="stop2" stop-color="rgba(52.2, 174.245, 151.507, 1)" offset="100%"></stop>
                        </linearGradient>
                    </defs>
                <path fill="url(#sw-gradient)" d="M20,-25.1C23.1,-21.1,21.1,-12.2,22.4,-4.1C23.6,4.1,28.2,11.5,27.3,18.3C26.3,25,20,31.2,13.6,30.7C7.1,30.1,0.7,23,-8.5,20.8C-17.8,18.6,-29.9,21.4,-35.4,17.6C-40.9,13.8,-39.9,3.5,-36.9,-5.3C-34,-14.1,-29,-21.4,-22.5,-24.8C-16,-28.1,-8,-27.6,0.2,-27.8C8.4,-28.1,16.8,-29,20,-25.1Z" width="100%" height="100%" transform="translate(50 50)" stroke-width="0" style="transition: 0.3s;" stroke="url(#sw-gradient)"></path>
              </svg>